<svg width="20" height="21" viewBox="0 0 20 21" fill="none" xmlns="http://www.w3.org/2000/svg">
<g clip-path="url(#clip0_1_483)">
<path d="M9.79664 0.171875C4.38662 0.171875 0 4.55653 0 9.96414C0 13.9729 2.41417 17.4177 5.86486 18.9346C5.83862 18.2526 5.86049 17.4308 6.03543 16.6876C6.22349 15.892 7.295 11.3499 7.295 11.3499C7.295 11.3499 6.9801 10.7248 6.9801 9.80239C6.9801 8.35104 7.81982 7.26689 8.86946 7.26689C9.76165 7.26689 10.1903 7.93574 10.1903 8.73573C10.1903 9.6319 9.61732 10.9696 9.3243 12.2111C9.07938 13.2516 9.84475 14.0953 10.8725 14.0953C12.7269 14.0953 13.9777 11.7128 13.9777 8.88875C13.9777 6.74232 12.5301 5.13796 9.9016 5.13796C6.932 5.13796 5.07763 7.35432 5.07763 9.82862C5.07763 10.6811 5.3313 11.2844 5.72491 11.7478C5.90422 11.962 5.93046 12.0494 5.86486 12.2942C5.81675 12.4734 5.71179 12.9062 5.66368 13.0811C5.59808 13.3303 5.3969 13.4177 5.17385 13.3259C3.80494 12.7663 3.16641 11.2713 3.16641 9.58381C3.16641 6.80351 5.51498 3.46802 10.1684 3.46802C13.9077 3.46802 16.37 6.17401 16.37 9.07672C16.37 12.9193 14.2314 15.7871 11.0824 15.7871C10.0241 15.7871 9.03128 15.2144 8.69014 14.5674C8.69014 14.5674 8.12159 16.8231 7.99913 17.2603C7.79357 18.0166 7.38684 18.7685 7.01509 19.3586C7.91686 19.6245 8.85208 19.76 9.79226 19.7608C15.2023 19.7608 19.5889 15.3761 19.5889 9.96852C19.5889 4.56091 15.2067 0.171875 9.79664 0.171875Z" fill="#274C5B"/>
</g>
<defs>
<clipPath id="clip0_1_483">
<rect width="20" height="20" fill="white" transform="translate(0 0.171875)"/>
</clipPath>
</defs>
</svg>
