<svg width="21" height="18" viewBox="0 0 21 18" fill="none" xmlns="http://www.w3.org/2000/svg">
<g clip-path="url(#clip0_1_474)">
<path d="M20.6602 2.1303C19.8852 2.46704 19.0652 2.68888 18.2261 2.78884C19.1079 2.2725 19.7711 1.45219 20.0912 0.481785C19.2575 0.969275 18.3469 1.31133 17.3984 1.49328C16.9991 1.0747 16.5187 0.741717 15.9866 0.514559C15.4546 0.287401 14.8818 0.170813 14.3033 0.171882C11.9609 0.171882 10.0654 2.03991 10.0654 4.34266C10.0637 4.66296 10.1004 4.98231 10.1747 5.29389C8.49507 5.21515 6.85036 4.78666 5.34581 4.03588C3.84126 3.28508 2.50999 2.2285 1.43717 0.933726C1.0608 1.56822 0.861758 2.29216 0.86084 3.02988C0.86084 4.47609 1.61537 5.75444 2.75469 6.50337C2.07967 6.48735 1.41849 6.30868 0.827268 5.98255V6.0342C0.827268 8.05717 2.2907 9.74012 4.22759 10.1232C3.86336 10.2203 3.48803 10.2695 3.11108 10.2696C2.84361 10.27 2.57674 10.2441 2.31437 10.1921C2.85283 11.8492 4.41999 13.0544 6.27639 13.0888C4.76793 14.2513 2.91593 14.8797 1.01149 14.8751C0.673443 14.8746 0.335713 14.8544 0 14.8148C1.9374 16.0519 4.18947 16.7063 6.48815 16.7C14.2943 16.7 18.5589 10.3427 18.5589 4.82902C18.5589 4.64825 18.5541 4.46747 18.5455 4.29101C19.3733 3.70222 20.0893 2.97053 20.6602 2.1303Z" fill="#274C5B"/>
</g>
<defs>
<clipPath id="clip0_1_474">
<rect width="21" height="17" fill="white" transform="translate(0 0.171875)"/>
</clipPath>
</defs>
</svg>
