<svg width="20" height="20" viewBox="0 0 20 20" fill="none" xmlns="http://www.w3.org/2000/svg">
<g clip-path="url(#clip0_1_470)">
<path fill-rule="evenodd" clip-rule="evenodd" d="M19.2828 9.45619C19.2828 4.32909 14.9657 0.171875 9.64141 0.171875C4.31711 0.171875 0 4.32909 0 9.45619C0 14.0901 3.52514 17.9311 8.13494 18.6282V12.1408H5.68628V9.45619H8.13494V7.41075C8.13494 5.08428 9.5747 3.79815 11.7767 3.79815C12.8317 3.79815 13.9353 3.9797 13.9353 3.9797V6.26472H12.7189C11.5219 6.26472 11.1475 6.9801 11.1475 7.71538V9.45619H13.8212L13.3942 12.1408H11.1479V18.6291C15.7577 17.9323 19.2828 14.0913 19.2828 9.45619Z" fill="#274C5B"/>
</g>
<defs>
<clipPath id="clip0_1_470">
<rect width="20" height="19" fill="white" transform="translate(0 0.171875)"/>
</clipPath>
</defs>
</svg>
