<svg width="23" height="21" viewBox="0 0 23 21" fill="none" xmlns="http://www.w3.org/2000/svg">
<path d="M10.6232 1.17878C10.9225 0.257463 12.2259 0.257463 12.5253 1.17878L14.3523 6.80203C14.4862 7.21405 14.8702 7.49302 15.3034 7.49302H21.2159C22.1846 7.49302 22.5874 8.73257 21.8037 9.30207L17.0203 12.7775C16.6699 13.0321 16.5232 13.4835 16.6571 13.8955L18.4842 19.5188C18.7835 20.4401 17.729 21.2063 16.9453 20.6368L12.162 17.1615C11.8115 16.9068 11.3369 16.9068 10.9864 17.1615L6.20322 20.6368C5.41952 21.2063 4.36502 20.4401 4.66432 19.5188L6.49142 13.8955C6.62532 13.4835 6.47862 13.0321 6.12812 12.7775L1.34472 9.30207C0.561018 8.73257 0.963819 7.49302 1.93252 7.49302H7.84512C8.27832 7.49302 8.66222 7.21405 8.79612 6.80202L10.6232 1.17878Z" fill="#FFA858"/>
</svg>
