<svg width="20" height="20" viewBox="0 0 20 20" fill="none" xmlns="http://www.w3.org/2000/svg">
<g clip-path="url(#clip0_1_478)">
<path d="M13.6585 1.71913C14.7231 1.72219 15.7431 2.13076 16.4958 2.85563C17.2486 3.5805 17.6729 4.56275 17.6761 5.58786V13.3246C17.6729 14.3497 17.2486 15.3319 16.4958 16.0568C15.7431 16.7817 14.7231 17.1902 13.6585 17.1933H5.6243C4.55976 17.1902 3.53973 16.7817 2.78698 16.0568C2.03423 15.3319 1.60994 14.3497 1.60676 13.3246V5.58786C1.60994 4.56275 2.03423 3.5805 2.78698 2.85563C3.53973 2.13076 4.55976 1.72219 5.6243 1.71913H13.6585ZM13.6585 0.171875H5.6243C2.53087 0.171875 0 2.609 0 5.58786V13.3246C0 16.3034 2.53087 18.7405 5.6243 18.7405H13.6585C16.752 18.7405 19.2828 16.3034 19.2828 13.3246V5.58786C19.2828 2.609 16.752 0.171875 13.6585 0.171875Z" fill="#274C5B"/>
<path d="M14.8633 5.58866C14.6249 5.58866 14.3919 5.52059 14.1937 5.39307C13.9956 5.26555 13.8411 5.0843 13.7499 4.87224C13.6587 4.66017 13.6348 4.42683 13.6813 4.20171C13.7278 3.97658 13.8426 3.76979 14.0111 3.60749C14.1797 3.44519 14.3944 3.33465 14.6282 3.28987C14.862 3.2451 15.1043 3.26808 15.3245 3.35592C15.5447 3.44375 15.7329 3.5925 15.8654 3.78335C15.9978 3.9742 16.0685 4.19858 16.0685 4.42812C16.0688 4.58061 16.0379 4.73167 15.9774 4.87262C15.917 5.01357 15.8282 5.14164 15.7163 5.24947C15.6043 5.3573 15.4713 5.44278 15.3249 5.50098C15.1785 5.55919 15.0217 5.58898 14.8633 5.58866ZM9.64102 6.36207C10.2767 6.36207 10.8981 6.54359 11.4266 6.88366C11.9551 7.22373 12.3671 7.70709 12.6103 8.27262C12.8536 8.83814 12.9172 9.46042 12.7932 10.0608C12.6692 10.6612 12.3631 11.2126 11.9136 11.6455C11.4641 12.0783 10.8915 12.3731 10.268 12.4925C9.64458 12.6119 8.99837 12.5506 8.4111 12.3164C7.82382 12.0821 7.32187 11.6854 6.96872 11.1765C6.61557 10.6675 6.42707 10.0691 6.42707 9.45699C6.42798 8.63643 6.76689 7.84974 7.36942 7.26952C7.97196 6.6893 8.78891 6.36295 9.64102 6.36207ZM9.64102 4.81482C8.68757 4.81482 7.75554 5.08708 6.96278 5.59717C6.17002 6.10726 5.55214 6.83226 5.18727 7.68051C4.8224 8.52875 4.72694 9.46214 4.91294 10.3627C5.09895 11.2632 5.55808 12.0903 6.23227 12.7395C6.90645 13.3887 7.76542 13.8309 8.70055 14.01C9.63567 14.1891 10.605 14.0972 11.4858 13.7458C12.3667 13.3945 13.1196 12.7995 13.6493 12.0361C14.179 11.2727 14.4617 10.3752 14.4617 9.45699C14.4617 8.22581 13.9538 7.04506 13.0498 6.17448C12.1457 5.30391 10.9196 4.81482 9.64102 4.81482Z" fill="#274C5B"/>
</g>
<defs>
<clipPath id="clip0_1_478">
<rect width="20" height="19" fill="white" transform="translate(0 0.171875)"/>
</clipPath>
</defs>
</svg>
