<?xml version="1.0" encoding="utf-8"?>
<!-- Uploaded to: SVG Repo, www.svgrepo.com, Generator: SVG Repo Mixer Tools -->
<svg width="800px" height="800px" viewBox="0 0 1024 1024" class="icon"  version="1.1" xmlns="http://www.w3.org/2000/svg"><path d="M450.8 340.5v451.7h391c30 0 54.4-27.1 54.4-60.6V401c0-33.4-24.4-60.6-54.4-60.6h-391z m329.6 389.4H512.3V402.8h268.1c30 0 54.4 27.1 54.4 60.6v206c0 33.4-24.4 60.5-54.4 60.5z" fill="#FAFCFB" /><path d="M841.8 805.8h-391c-7.5 0-13.6-6.1-13.6-13.6V340.5c0-7.5 6.1-13.6 13.6-13.6h391c37.5 0 68 33.3 68 74.2v330.6c0 40.9-30.5 74.1-68 74.1z m-377.3-27.2h377.3c22.5 0 40.7-21.1 40.7-46.9V401c0-25.9-18.3-46.9-40.7-46.9H464.5v424.5z m315.9-35.1H512.3c-7.5 0-13.6-6.1-13.6-13.6V402.8c0-7.5 6.1-13.6 13.6-13.6h268.1c37.5 0 68 33.3 68 74.2v206c0 40.8-30.5 74.1-68 74.1z m-254.5-27.2h254.5c22.5 0 40.7-21.1 40.7-46.9v-206c0-25.9-18.3-46.9-40.7-46.9H525.9v299.8z" fill="#0F0F0F" /><path d="M176.6 131.9a84.2 86.4 0 1 0 168.4 0 84.2 86.4 0 1 0-168.4 0Z" fill="#D39E33" /><path d="M260.8 231.9c-54 0-97.9-44.9-97.9-100s43.9-100 97.9-100 97.9 44.9 97.9 100-43.9 100-97.9 100z m0-172.8c-38.9 0-70.6 32.6-70.6 72.7s31.7 72.7 70.6 72.7 70.6-32.6 70.6-72.7-31.7-72.7-70.6-72.7z" fill="#111111" /><path d="M300 116.5a95.6 86.4 0 1 0 191.2 0 95.6 86.4 0 1 0-191.2 0Z" fill="#D39E33" /><path d="M395.6 216.5c-60.2 0-109.2-44.9-109.2-100s49-100 109.2-100 109.2 44.9 109.2 100-49 100-109.2 100z m0-172.7c-45.2 0-81.9 32.6-81.9 72.7s36.7 72.7 81.9 72.7 81.9-32.6 81.9-72.7-36.7-72.7-81.9-72.7z" fill="#111111" /><path d="M334 192a84.2 86.4 0 1 0 168.4 0 84.2 86.4 0 1 0-168.4 0Z" fill="#D39E33" /><path d="M418.2 292c-54 0-97.9-44.9-97.9-100s43.9-100 97.9-100 97.9 44.9 97.9 100-43.9 100-97.9 100z m0-172.7c-38.9 0-70.6 32.6-70.6 72.7s31.7 72.7 70.6 72.7 70.6-32.6 70.6-72.7-31.7-72.7-70.6-72.7z" fill="#111111" /><path d="M489.5 192a84.2 86.4 0 1 0 168.4 0 84.2 86.4 0 1 0-168.4 0Z" fill="#D39E33" /><path d="M573.7 292c-54 0-97.9-44.9-97.9-100s43.9-100 97.9-100c54 0 97.9 44.9 97.9 100s-43.9 100-97.9 100z m0-172.7c-38.9 0-70.6 32.6-70.6 72.7s31.7 72.7 70.6 72.7 70.6-32.6 70.6-72.7-31.7-72.7-70.6-72.7z" fill="#111111" /><path d="M571 218.2a84.2 86.4 0 1 0 168.4 0 84.2 86.4 0 1 0-168.4 0Z" fill="#D39E33" /><path d="M655.2 318.3c-54 0-97.9-44.9-97.9-100s43.9-100 97.9-100 97.9 44.9 97.9 100-43.9 100-97.9 100z m0-172.8c-38.9 0-70.6 32.6-70.6 72.7s31.7 72.7 70.6 72.7 70.6-32.6 70.6-72.7-31.7-72.7-70.6-72.7z" fill="#111111" /><path d="M673.3 996.3H195.9c-30.7 0-55.6-24.9-55.6-55.6V249H729v691.7c0 30.7-24.9 55.6-55.7 55.6z" fill="#9DC6AF" /><path d="M670.6 1010H198.7c-39.7 0-72-32.3-72-72V235.3h616v702.6c-0.1 39.7-32.4 72.1-72.1 72.1zM153.9 262.6v675.3c0 24.7 20.1 44.7 44.7 44.7h471.9c24.7 0 44.7-20.1 44.7-44.7V262.6H153.9z" fill="#191919" /><path d="M683.8 950.2H185.5c-30.7 0-55.6-24.9-55.6-55.6V252.9c0-27.6 22.4-50 50-50h509.6c27.6 0 50 22.4 50 50v641.7c-0.1 30.7-25 55.6-55.7 55.6z" fill="#FAFCFB" /><path d="M681 963.9H188.2c-39.7 0-72-32.3-72-72V255.4c0-36.5 29.7-66.1 66.1-66.1H687c36.5 0 66.1 29.7 66.1 66.1v636.5c0 39.7-32.3 72-72.1 72zM182.3 216.5c-21.4 0-38.8 17.4-38.8 38.8v636.5c0 24.7 20.1 44.7 44.7 44.7H681c24.7 0 44.7-20.1 44.7-44.7V255.4c0-21.4-17.4-38.8-38.8-38.8H182.3z" fill="#0F0F0F" /><path d="M342.7 768.5h-67c-1.3 0-2.3-1.1-2.3-2.3V479.1c0-1.3 1.1-2.3 2.3-2.3h67c1.3 0 2.3 1.1 2.3 2.3v287.1c0 1.3-1 2.3-2.3 2.3z" fill="#D39E33" /><path d="M436.3 768.5h-3.4c-18.8 0-34.1-15.4-34.1-34.1V510.9c0-18.8 15.4-34.1 34.1-34.1h3.4c18.8 0 34.1 15.4 34.1 34.1v223.5c0.1 18.8-15.3 34.1-34.1 34.1z" fill="#D39E33" /><path d="M434.6 782.2c-27.3 0-49.5-22.2-49.5-49.5V512.6c0-27.3 22.2-49.5 49.5-49.5s49.5 22.2 49.5 49.5v220.1c0 27.3-22.2 49.5-49.5 49.5z m0-291.8c-12.2 0-22.2 10-22.2 22.2v220.1c0 12.2 10 22.2 22.2 22.2s22.2-10 22.2-22.2V512.6c0-12.3-9.9-22.2-22.2-22.2z" fill="#111111" /><path d="M561.7 768.5h-3.4c-18.8 0-34.1-15.4-34.1-34.1V510.9c0-18.8 15.4-34.1 34.1-34.1h3.4c18.8 0 34.1 15.4 34.1 34.1v223.5c0.1 18.8-15.3 34.1-34.1 34.1z" fill="#D39E33" /><path d="M560 782.2c-27.3 0-49.5-22.2-49.5-49.5V512.6c0-27.3 22.2-49.5 49.5-49.5s49.5 22.2 49.5 49.5v220.1c0 27.3-22.2 49.5-49.5 49.5z m0-291.8c-12.2 0-22.2 10-22.2 22.2v220.1c0 12.2 10 22.2 22.2 22.2s22.2-10 22.2-22.2V512.6c0-12.3-9.9-22.2-22.2-22.2z" fill="#111111" /><path d="M309.2 782.2c-27.3 0-49.5-22.2-49.5-49.5V512.6c0-27.3 22.2-49.5 49.5-49.5s49.5 22.2 49.5 49.5v64c0 7.5-6.1 13.6-13.6 13.6s-13.6-6.1-13.6-13.6v-64c0-12.2-10-22.2-22.2-22.2s-22.2 10-22.2 22.2v220.1c0 12.2 10 22.2 22.2 22.2s22.2-10 22.2-22.2v-51.2c0-7.5 6.1-13.6 13.6-13.6s13.6 6.1 13.6 13.6v51.2c0 27.3-22.2 49.5-49.5 49.5z" fill="#111111" /><path d="M491.1 362.9m-36.5 0a36.5 36.5 0 1 0 73 0 36.5 36.5 0 1 0-73 0Z" fill="#D39E33" /><path d="M491.1 413c-27.6 0-50.1-22.5-50.1-50.1s22.5-50.1 50.1-50.1 50.1 22.5 50.1 50.1c0.1 27.6-22.4 50.1-50.1 50.1z m0-73c-12.6 0-22.8 10.2-22.8 22.8s10.2 22.8 22.8 22.8c12.6 0 22.8-10.2 22.8-22.8S503.7 340 491.1 340z" fill="#111111" /><path d="M140.3 247.7H729" fill="#D39E33" /><path d="M729 261.3H140.3c-7.5 0-13.6-6.1-13.6-13.6s6.1-13.6 13.6-13.6H729c7.5 0 13.6 6.1 13.6 13.6s-6.1 13.6-13.6 13.6z" fill="#111111" /><path d="M623.6 856.4c-7.5 0-13.6-6.1-13.6-13.6s6.1-13.6 13.6-13.6c26.3 0 47.8-21.4 47.8-47.8V343.7c0-26.3-21.4-47.8-47.8-47.8h-27.7c-7.5 0-13.6-6.1-13.6-13.6s6.1-13.6 13.6-13.6h27.7c41.4 0 75.1 33.7 75.1 75.1v437.7c0 41.2-33.7 74.9-75.1 74.9z" fill="#111111" /><path d="M283 105.6c-30.3 0-57 15.3-72.9 38.5-7.9-11.6-21.3-19.3-36.3-19.3-24.2 0-43.9 19.8-43.9 43.9v234.6c0 24.2 19.8 43.9 43.9 43.9s43.9-19.8 43.9-43.9v-150c16.2 17.8 39.4 29 65.3 29 48.8 0 88.3-39.5 88.3-88.3s-39.6-88.4-88.3-88.4z" fill="#D39E33" /><path d="M173.8 461c-31.7 0-57.6-25.8-57.6-57.6V168.8c0-31.7 25.8-57.6 57.6-57.6 13 0 25.5 4.4 35.5 12.3 19.1-20 45.6-31.5 73.7-31.5 56.2 0 101.9 45.7 101.9 101.9s-45.7 102-101.9 102c-18.3 0-36.1-5-51.6-14.1v121.6c-0.1 31.7-25.9 57.6-57.6 57.6z m0-322.5c-16.7 0-30.3 13.6-30.3 30.3v234.6c0 16.7 13.6 30.3 30.3 30.3 16.7 0 30.3-13.6 30.3-30.3V253.3c0-5.6 3.5-10.7 8.7-12.7 5.3-2 11.2-0.6 15 3.5 14.2 15.6 34.3 24.5 55.2 24.5 41.2 0 74.7-33.5 74.7-74.7s-33.5-74.7-74.7-74.7c-24.6 0-47.7 12.2-61.6 32.6-2.5 3.7-6.8 5.9-11.3 5.9-4.5 0-8.7-2.2-11.3-6-5.7-8.2-15.1-13.2-25-13.2z" fill="#111111" /></svg>