<?xml version="1.0" encoding="utf-8"?>
<!-- Uploaded to: SVG Repo, www.svgrepo.com, Generator: SVG Repo Mixer Tools -->
<svg width="800px" height="800px" viewBox="0 0 1024 1024" class="icon"  version="1.1" xmlns="http://www.w3.org/2000/svg"><path d="M780 229H244c-8.3 0-15 6.7-15 15v536c0 8.3 6.7 15 15 15h330.6L795 574.6V244c0-8.3-6.7-15-15-15z m-479.5 88.9c-14.7 0-26.6-11.9-26.6-26.6s11.9-26.6 26.6-26.6 26.6 11.9 26.6 26.6-12 26.6-26.6 26.6z m354.1 315.5c5.9 5.9 5.9 15.4 0 21.2-2.9 2.9-6.8 4.4-10.6 4.4s-7.7-1.5-10.6-4.4L512 533.2 390.6 654.6c-2.9 2.9-6.8 4.4-10.6 4.4s-7.7-1.5-10.6-4.4c-5.9-5.9-5.9-15.4 0-21.2L490.8 512 369.4 390.6c-5.9-5.9-5.9-15.4 0-21.2 5.9-5.9 15.4-5.9 21.2 0L512 490.8l121.4-121.4c5.9-5.9 15.4-5.9 21.2 0 5.9 5.9 5.9 15.4 0 21.2L533.2 512l121.4 121.4zM780 795c8.3 0 15-6.7 15-15v-49.1L730.9 795H780zM688.4 795L795 688.4v-71.3L617.1 795z" fill="#FFBC00" /><path d="M780 199H244c-24.8 0-45 20.2-45 45v536c0 24.8 20.2 45 45 45h536c24.8 0 45-20.2 45-45V244c0-24.8-20.2-45-45-45z m15 581c0 8.3-6.7 15-15 15h-49.1l64.1-64.1V780z m0-91.6L688.4 795H617l178-177.9v71.3z m0-113.8L574.6 795H244c-8.3 0-15-6.7-15-15V244c0-8.3 6.7-15 15-15h536c8.3 0 15 6.7 15 15v330.6z" fill="#46287C" /><path d="M654.6 369.4c-5.9-5.9-15.4-5.9-21.2 0L512 490.8 390.6 369.4c-5.9-5.9-15.4-5.9-21.2 0-5.9 5.9-5.9 15.4 0 21.2L490.8 512 369.4 633.4c-5.9 5.9-5.9 15.4 0 21.2 2.9 2.9 6.8 4.4 10.6 4.4s7.7-1.5 10.6-4.4L512 533.2l121.4 121.4c2.9 2.9 6.8 4.4 10.6 4.4s7.7-1.5 10.6-4.4c5.9-5.9 5.9-15.4 0-21.2L533.2 512l121.4-121.4c5.8-5.8 5.8-15.3 0-21.2z" fill="#FFFFFF" /><path d="M300.5 291.3m-26.6 0a26.6 26.6 0 1 0 53.2 0 26.6 26.6 0 1 0-53.2 0Z" fill="#FFFFFF" /></svg>