<?xml version="1.0" encoding="utf-8"?>
<!-- Uploaded to: SVG Repo, www.svgrepo.com, Generator: SVG Repo Mixer Tools -->
<svg width="800px" height="800px" viewBox="0 0 1024 1024" class="icon"  version="1.1" xmlns="http://www.w3.org/2000/svg"><path d="M878.9 152.9H443.4v-20.2c0-12.2-9.9-22.1-22.1-22.1H185c-12.2 0-22.1 9.9-22.1 22.1v20.2h-19.2C88.1 152.9 43 198 43 253.7V809c0 55.6 45.1 100.7 100.7 100.7h735.2c55.6 0 100.7-45.1 100.7-100.7V253.7c0.1-55.7-45-100.8-100.7-100.8z" fill="#9DC6AF" /><path d="M878.9 923H143.7c-62.9 0-114-51.2-114-114V253.7c0-62.9 51.2-114 114-114h5.9v-6.9c0-19.5 15.9-35.4 35.4-35.4h236.3c19.5 0 35.4 15.9 35.4 35.4v6.9h422.2c62.9 0 114 51.2 114 114V809c0.1 62.8-51.1 114-114 114zM143.7 166.3c-48.2 0-87.4 39.2-87.4 87.4V809c0 48.2 39.2 87.4 87.4 87.4h735.2c48.2 0 87.4-39.2 87.4-87.4V253.7c0-48.2-39.2-87.4-87.4-87.4H430.1v-33.6c0-4.8-3.9-8.8-8.8-8.8H185c-4.8 0-8.8 3.9-8.8 8.8v33.6h-32.5z" fill="#191919" /><path d="M979.7 824H43V245c0-3.5 2.8-6.3 6.3-6.3h924c3.5 0 6.3 2.8 6.3 6.3v579z" fill="#FAFCFB" /><path d="M979.7 837.3H43c-7.4 0-13.3-6-13.3-13.3V245.1c0-10.9 8.9-19.8 19.8-19.8h923.7c10.9 0 19.8 8.9 19.8 19.8V824c0 7.3-6 13.3-13.3 13.3zM56.3 810.6h910V252h-910v558.6z" fill="#0F0F0F" /><path d="M23 777.2h976.7v63.5H23z" fill="#D39E33" /><path d="M999.7 854H23c-7.4 0-13.3-6-13.3-13.3v-63.5c0-7.4 6-13.3 13.3-13.3h976.7c7.4 0 13.3 6 13.3 13.3v63.5c0 7.4-6 13.3-13.3 13.3zM36.3 827.4h950v-36.8h-950v36.8z" fill="#111111" /><path d="M180.9 489c0-30.4 22.2-55.2 49.3-55.2 27.1 0 49.3 24.8 49.3 55.2" fill="#FAFCFB" /><path d="M279.4 502.4c-7.4 0-13.3-6-13.3-13.3 0-23.1-16.1-41.9-36-41.9-19.8 0-36 18.8-36 41.9 0 7.4-6 13.3-13.3 13.3-7.4 0-13.3-6-13.3-13.3 0-37.8 28.1-68.5 62.6-68.5s62.6 30.7 62.6 68.5c0.1 7.3-5.9 13.3-13.3 13.3z" fill="#0F0F0F" /><path d="M738.9 489c0-30.4 22.2-55.2 49.3-55.2 27.1 0 49.3 24.8 49.3 55.2" fill="#FAFCFB" /><path d="M837.5 502.4c-7.4 0-13.3-6-13.3-13.3 0-23.1-16.1-41.9-36-41.9-19.8 0-36 18.8-36 41.9 0 7.4-6 13.3-13.3 13.3s-13.3-6-13.3-13.3c0-37.8 28.1-68.5 62.6-68.5s62.6 30.7 62.6 68.5c0 7.3-6 13.3-13.3 13.3z" fill="#0F0F0F" /><path d="M378.7 541.7c0 60.8 58.7 110.5 130.4 110.5s130.4-49.7 130.4-110.5v-36.8H378.7v36.8z" fill="#5B5143" /><path d="M509.2 665.5c-79.3 0-143.8-55.5-143.8-123.8v-36.8c0-7.4 6-13.3 13.3-13.3h260.9c7.4 0 13.3 6 13.3 13.3v36.8c0 68.3-64.4 123.8-143.7 123.8zM392.1 518.2v23.5c0 25.4 11.9 49.5 33.6 67.9 22.3 18.9 52 29.3 83.5 29.3s61.2-10.4 83.5-29.3c21.7-18.4 33.6-42.5 33.6-67.9v-23.5H392.1z" fill="#141414" /><path d="M432 587a75 33 0 1 0 150 0 75 33 0 1 0-150 0Z" fill="#966747" /></svg>