<?xml version="1.0" encoding="utf-8"?>
<!-- Uploaded to: SVG Repo, www.svgrepo.com, Generator: SVG Repo Mixer Tools -->
<svg width="800px" height="800px" viewBox="0 0 1024 1024" class="icon"  version="1.1" xmlns="http://www.w3.org/2000/svg"><path d="M960 485.724c-69.622-177.665-242.183-302.778-444.162-302.778-201.978 0-374.54 125.113-444.162 302.778H960z" fill="#FCB814" /><path d="M949.824 610.089H66.5a2.5 2.5 0 0 1-2.5-2.5v-83.832a2.5 2.5 0 0 1 2.5-2.5h883.324a2.5 2.5 0 0 1 2.5 2.5v83.832a2.5 2.5 0 0 1-2.5 2.5z" fill="#FF3B30" /><path d="M824.962 841.054H206.713c-55.719 0-104.019-39.755-116.347-94.095l-18.691-83.57H960l-18.69 83.57c-12.328 54.339-60.628 94.095-116.348 94.095z" fill="#FCB814" /><path d="M427.005 200.712c195.115 0 362.486 116.916 436.419 285.012H960c-69.622-177.665-242.184-302.778-444.162-302.778-48.317 0-94.875 7.343-138.819 20.668 16.46-1.711 33.073-2.902 49.986-2.902zM835.635 663.389l-18.69 83.57c-12.329 54.34-60.628 94.095-116.347 94.095h124.365c55.719 0 104.02-39.755 116.347-94.095l18.69-83.57H835.635z" fill="#030504" /><path d="M303.846 394.057h-17.762c-8.247 0-14.933-6.687-14.933-14.933 0-8.248 6.686-14.933 14.933-14.933h17.762c8.248 0 14.933 6.686 14.933 14.933 0 8.246-6.685 14.933-14.933 14.933zM534.811 394.057h-17.763c-8.246 0-14.933-6.687-14.933-14.933 0-8.248 6.687-14.933 14.933-14.933h17.763c8.246 0 14.933 6.686 14.933 14.933 0 8.246-6.687 14.933-14.933 14.933zM748.011 394.057h-17.769c-8.247 0-14.933-6.687-14.933-14.933 0-8.248 6.686-14.933 14.933-14.933h17.769c8.248 0 14.933 6.686 14.933 14.933 0 8.246-6.685 14.933-14.933 14.933zM641.406 322.993h-17.762c-8.248 0-14.933-6.686-14.933-14.933 0-8.246 6.685-14.933 14.933-14.933h17.762c8.248 0 14.933 6.687 14.933 14.933 0.001 8.247-6.685 14.933-14.933 14.933zM428.214 305.226h-17.771c-8.246 0-14.933-6.686-14.933-14.933 0-8.246 6.687-14.933 14.933-14.933h17.771c8.246 0 14.933 6.687 14.933 14.933 0 8.248-6.687 14.933-14.933 14.933z" fill="#FF3B30" /></svg>