<?xml version="1.0" encoding="utf-8"?>
<!-- Uploaded to: SVG Repo, www.svgrepo.com, Generator: SVG Repo Mixer Tools -->
<svg width="800px" height="800px" viewBox="0 0 1024 1024" class="icon"  version="1.1" xmlns="http://www.w3.org/2000/svg"><path d="M889.4 322.1h-131c-1.4 0-2.5-1.1-2.5-2.5V169.7c0-1.4 1.1-2.5 2.5-2.5h131c13.7 0 24.8 11.1 24.8 24.8v105.4c0 13.6-11.1 24.7-24.8 24.7z" fill="#9DC6AF" /><path d="M889.4 335.1h-131c-8.6 0-15.5-7-15.5-15.5V169.7c0-8.6 7-15.5 15.5-15.5h131c20.8 0 37.8 16.9 37.8 37.8v105.4c0 20.7-17 37.7-37.8 37.7z m-120.5-26h120.5c6.5 0 11.8-5.3 11.8-11.8V191.9c0-6.5-5.3-11.8-11.8-11.8H768.9v129z" fill="#191919" /><path d="M864.2 479.6h-131c-1.4 0-2.5-1.1-2.5-2.5V327.2c0-1.4 1.1-2.5 2.5-2.5h131c13.7 0 24.8 11.1 24.8 24.8v105.4c0 13.6-11.1 24.7-24.8 24.7z" fill="#D39E33" /><path d="M864.2 492.6h-131c-8.6 0-15.5-7-15.5-15.5V327.2c0-8.6 7-15.5 15.5-15.5h131c20.8 0 37.8 16.9 37.8 37.8v105.4c0 20.8-17 37.7-37.8 37.7z m-120.5-26h120.5c6.5 0 11.8-5.3 11.8-11.8V349.5c0-6.5-5.3-11.8-11.8-11.8H743.7v128.9z" fill="#111111" /><path d="M864.2 628.4h-131c-1.4 0-2.5-1.1-2.5-2.5V476c0-1.4 1.1-2.5 2.5-2.5h138.2c9.7 0 17.6 7.9 17.6 17.6v112.6c0 13.6-11.1 24.7-24.8 24.7z" fill="#845A3D" /><path d="M864.2 641.4h-131c-8.6 0-15.5-7-15.5-15.5V476c0-8.6 7-15.5 15.5-15.5h138.2c16.9 0 30.6 13.7 30.6 30.6v112.6c0 20.7-17 37.7-37.8 37.7z m-120.5-26h120.5c6.5 0 11.8-5.3 11.8-11.8V491c0-2.5-2.1-4.6-4.6-4.6H743.7v129z" fill="#141414" /><path d="M747.7 961.1H255.5c-52.2 0-94.5-42.3-94.5-94.5V102.3c0-27.3 22.2-49.5 49.5-49.5h582.2c27.3 0 49.5 22.2 49.5 49.5v764.2c0 52.2-42.3 94.6-94.5 94.6z" fill="#9DC6AF" /><path d="M747.7 974.1H255.5c-59.3 0-107.5-48.2-107.5-107.5V102.3c0-34.5 28-62.5 62.5-62.5h582.2c34.5 0 62.5 28 62.5 62.5v764.2c0 59.3-48.2 107.6-107.5 107.6zM210.5 65.8c-20.1 0-36.5 16.4-36.5 36.5v764.2c0 45 36.6 81.5 81.5 81.5h492.1c45 0 81.5-36.6 81.5-81.5V102.3c0-20.1-16.4-36.5-36.5-36.5H210.5z" fill="#191919" /><path d="M791.4 877.5H211.8c-28.1 0-50.8-22.7-50.8-50.8V103.6c0-28.1 22.7-50.8 50.8-50.8h579.6c28.1 0 50.8 22.7 50.8 50.8v723.1c0 28.1-22.7 50.8-50.8 50.8z" fill="#FAFCFB" /><path d="M791.4 890.5H211.8c-35.2 0-63.8-28.6-63.8-63.8V103.6c0-35.2 28.6-63.8 63.8-63.8h579.6c35.2 0 63.8 28.6 63.8 63.8v723.1c0 35.2-28.6 63.8-63.8 63.8zM211.8 65.8c-20.8 0-37.8 17-37.8 37.8v723.1c0 20.8 17 37.8 37.8 37.8h579.6c20.8 0 37.8-17 37.8-37.8V103.6c0-20.8-17-37.8-37.8-37.8H211.8z" fill="#0F0F0F" /><path d="M357.8 367.2m-32.6 0a32.6 32.6 0 1 0 65.2 0 32.6 32.6 0 1 0-65.2 0Z" fill="#0F0F0F" /><path d="M652.6 367.2m-32.6 0a32.6 32.6 0 1 0 65.2 0 32.6 32.6 0 1 0-65.2 0Z" fill="#0F0F0F" /><path d="M505.2 492.6c-38.7 0-70.2-30.6-70.2-68.3v-22.1c0-7.2 5.8-13 13-13s13 5.8 13 13v22.1c0 23.3 19.8 42.3 44.2 42.3 24.4 0 44.2-19 44.2-42.3v-22.1c0-7.2 5.8-13 13-13s13 5.8 13 13v22.1c0 37.6-31.5 68.3-70.2 68.3z" fill="#0F0F0F" /><path d="M198.2 184.1h-86.4c-9.4 0-17-7.6-17-17s7.6-17 17-17h86.4c9.4 0 17 7.6 17 17s-7.6 17-17 17zM198.2 278.1h-86.4c-9.4 0-17-7.6-17-17s7.6-17 17-17h86.4c9.4 0 17 7.6 17 17s-7.6 17-17 17zM198.2 372h-86.4c-9.4 0-17-7.6-17-17s7.6-17 17-17h86.4c9.4 0 17 7.6 17 17s-7.6 17-17 17zM198.2 466h-86.4c-9.4 0-17-7.6-17-17s7.6-17 17-17h86.4c9.4 0 17 7.6 17 17s-7.6 17-17 17zM198.2 559.9h-86.4c-9.4 0-17-7.6-17-17s7.6-17 17-17h86.4c9.4 0 17 7.6 17 17s-7.6 17-17 17zM198.2 653.8h-86.4c-9.4 0-17-7.6-17-17s7.6-17 17-17h86.4c9.4 0 17 7.6 17 17s-7.6 17-17 17zM198.2 747.8h-86.4c-9.4 0-17-7.6-17-17s7.6-17 17-17h86.4c9.4 0 17 7.6 17 17s-7.6 17-17 17z" fill="#0F0F0F" /></svg>