<svg width="84" height="51" viewBox="0 0 84 51" fill="none" xmlns="http://www.w3.org/2000/svg">
<path d="M3.038 20.3621H2.22852C0.997617 20.3621 0 21.36 0 22.5906C0 23.8212 0.997617 24.8191 2.22852 24.8191H3.038C4.26828 24.8191 5.26657 23.8212 5.26657 22.5906C5.26657 21.36 4.26859 20.3621 3.038 20.3621Z" fill="#17183B"/>
<path d="M21.5707 24.8191C22.8013 24.8191 23.7995 23.8212 23.7995 22.5906C23.7995 21.36 22.8013 20.3621 21.5707 20.3621H9.20313C7.97286 20.3621 6.97461 21.36 6.97461 22.5906C6.97461 23.8212 7.97286 24.8191 9.20313 24.8191H21.5707Z" fill="#17183B"/>
<path d="M10.5781 16.5465H11.3784C12.6096 16.5465 13.6069 15.5486 13.6069 14.3183C13.6069 13.0871 12.6096 12.0895 11.3784 12.0895H10.5781C9.34723 12.0895 8.34961 13.0874 8.34961 14.3183C8.34961 15.5486 9.34723 16.5465 10.5781 16.5465Z" fill="#17183B"/>
<path d="M24.0084 12.0895H17.5443C16.3131 12.0895 15.3154 13.0874 15.3154 14.3183C15.3154 15.5489 16.3131 16.5465 17.5443 16.5465H24.0084C25.2393 16.5465 26.2369 15.5486 26.2369 14.3183C26.2369 13.0871 25.2393 12.0895 24.0084 12.0895Z" fill="#17183B"/>
<path d="M11.3883 28.6357H10.5781C9.34723 28.6357 8.34961 29.6337 8.34961 30.8646C8.34961 32.0952 9.34723 33.0928 10.5781 33.0928H11.3883C12.6192 33.0928 13.6168 32.0949 13.6168 30.8646C13.6168 29.6337 12.6192 28.6357 11.3883 28.6357Z" fill="#17183B"/>
<path d="M24.0083 28.6357H17.5538C16.3229 28.6357 15.3252 29.6337 15.3252 30.8646C15.3252 32.0952 16.3229 33.0928 17.5538 33.0928H24.0083C25.2392 33.0928 26.2368 32.0949 26.2368 30.8646C26.2368 29.6337 25.2392 28.6357 24.0083 28.6357Z" fill="#17183B"/>
<path d="M83.3369 24.5136L72.6408 12.8147C72.219 12.3526 71.6215 12.0895 70.9957 12.0895H58.3498V2.61916C58.3498 1.38825 57.3522 0.390625 56.1212 0.390625H15.5083C14.2774 0.390625 13.2798 1.38857 13.2798 2.61916C13.2798 3.84975 14.2774 4.84769 15.5083 4.84769H53.8924V40.3352H34.6721C33.7094 37.1014 30.7114 34.7362 27.1697 34.7362C23.6279 34.7362 20.6293 37.1014 19.6676 40.3352H15.5083C14.2774 40.3352 13.2798 41.3328 13.2798 42.5634C13.2798 43.7946 14.2774 44.792 15.5083 44.792H19.6676C20.6293 48.0251 23.6279 50.3906 27.1697 50.3906C30.7114 50.3906 33.7094 48.0251 34.6721 44.792H56.1209H61.4037C62.3664 48.0251 65.365 50.3906 68.9061 50.3906C72.4485 50.3906 75.4465 48.0251 76.4088 44.792H81.6919C82.9228 44.792 83.9204 43.7943 83.9204 42.5634V26.0172C83.9211 25.4613 83.7122 24.9245 83.3369 24.5136ZM27.1697 45.9342C25.3114 45.9342 23.7995 44.4223 23.7995 42.5637C23.7995 40.7054 25.3114 39.1933 27.1697 39.1933C29.028 39.1933 30.5398 40.7058 30.5398 42.5637C30.5401 44.4223 29.028 45.9342 27.1697 45.9342ZM68.9064 45.9342C67.0481 45.9342 65.5363 44.4223 65.5363 42.5637C65.5363 40.7054 67.0485 39.1933 68.9064 39.1933C70.7653 39.1933 72.2772 40.7058 72.2772 42.5637C72.2775 44.4223 70.7653 45.9342 68.9064 45.9342ZM76.4094 40.3355C75.4471 37.1017 72.4491 34.7365 68.9067 34.7365C65.3653 34.7365 62.367 37.1017 61.4043 40.3355H58.3501V16.5469H70.0143L76.6354 23.789H64.012C62.7817 23.789 61.7841 24.7869 61.7841 26.0175C61.7841 27.2487 62.7817 28.2461 64.012 28.2461H79.464V40.3352H76.4094V40.3355Z" fill="#17183B"/>
</svg>
