<svg width="60" height="50" viewBox="0 0 60 50" fill="none" xmlns="http://www.w3.org/2000/svg">
<path d="M17.2233 32.6246H27.413C28.2923 32.6246 29.005 31.9119 29.005 31.0331C29.005 30.1538 28.2921 29.4406 27.413 29.4406H21.0663L27.0219 23.4854C28.3005 22.2067 29.005 20.5067 29.005 18.6981C29.005 16.8898 28.3005 15.1898 27.0219 13.9111C25.7434 12.6323 24.0432 11.9282 22.2349 11.9282C20.4263 11.9282 18.7263 12.6325 17.4479 13.9111C16.826 14.5325 16.826 15.5408 17.4479 16.1626C18.0697 16.784 19.0775 16.784 19.6994 16.1622C20.3764 15.4849 21.2772 15.1121 22.2349 15.1121C23.1927 15.1121 24.0934 15.4849 24.7706 16.1626C25.4481 16.8394 25.8209 17.74 25.8209 18.6981C25.8209 19.656 25.4481 20.5566 24.7706 21.2339L16.0972 29.9074C15.6418 30.3624 15.5058 31.0474 15.7519 31.6424C15.9987 32.237 16.5792 32.6246 17.2233 32.6246Z" fill="#17183B"/>
<path d="M42.7248 29.4413H41.372V26.2436C41.372 25.3647 40.6593 24.6516 39.78 24.6516C38.9007 24.6516 38.1883 25.3647 38.1883 26.2436V29.4413H34.3759L41.2323 14.1727C41.5924 13.3708 41.2341 12.4284 40.432 12.0683C39.6299 11.7082 38.6877 12.0663 38.3277 12.8682L30.4635 30.3812C30.2423 30.8737 30.2857 31.4449 30.579 31.8985C30.8726 32.3517 31.3755 32.625 31.9156 32.625H38.188V35.8232C38.188 36.7021 38.9005 37.4154 39.7798 37.4154C40.6593 37.4154 41.3717 36.7021 41.3717 35.8232V32.625H42.7246C43.6039 32.625 44.3168 31.9124 44.3168 31.0335C44.317 30.1542 43.6039 29.4413 42.7248 29.4413Z" fill="#333333"/>
<path d="M59.7354 23.8765C59.4511 23.384 58.9253 23.0803 58.3568 23.0803H54.5938C54.2146 17.0898 51.7023 11.5095 47.4195 7.22723C42.7596 2.56738 36.5641 0.0012207 29.9743 0.0012207C29.095 0.0012207 28.3823 0.713875 28.3823 1.59295C28.3823 2.47247 29.0952 3.18489 29.9743 3.18489C41.2871 3.18489 50.5855 11.9727 51.4028 23.0805H47.751C47.182 23.0805 46.6567 23.3843 46.3724 23.8767C46.0877 24.3694 46.0877 24.9762 46.3724 25.4689L51.675 34.6537C51.9597 35.1464 52.4851 35.4495 53.0536 35.4495C53.6225 35.4495 54.1481 35.1464 54.4323 34.6537L59.7351 25.4689C60.0194 24.976 60.0194 24.3691 59.7354 23.8765ZM53.0536 30.6732L50.5083 26.2642H55.5995L53.0536 30.6732Z" fill="#17183B"/>
<path d="M25.007 3.18437C25.4256 3.18437 25.8363 3.01366 26.1326 2.71739C26.4287 2.42134 26.5992 2.01062 26.5992 1.5922C26.5992 1.17241 26.4289 0.762617 26.1326 0.466565C25.8366 0.169379 25.4256 0 25.007 0C24.5874 0 24.1776 0.169379 23.8809 0.466565C23.5848 0.762617 23.415 1.17332 23.415 1.5922C23.415 2.01062 23.5848 2.42134 23.8809 2.71739C24.1776 3.01366 24.5874 3.18437 25.007 3.18437Z" fill="#17183B"/>
<path d="M20.2313 3.18437C20.6498 3.18437 21.0607 3.01366 21.3567 2.71739C21.6539 2.42134 21.8233 2.01062 21.8233 1.5922C21.8233 1.17241 21.6539 0.762617 21.3567 0.466565C21.0607 0.169379 20.6498 0 20.2313 0C19.8127 0 19.402 0.169379 19.1057 0.466565C18.8085 0.762617 18.6392 1.17241 18.6392 1.5922C18.6392 2.01062 18.8085 2.42134 19.1057 2.71739C19.4018 3.01366 19.8127 3.18437 20.2313 3.18437Z" fill="#17183B"/>
<path d="M29.9745 46.1589C24.2347 46.1589 18.839 43.9238 14.7803 39.8656C11.0994 36.1847 8.91854 31.4031 8.54485 26.2633H12.1976C12.198 26.2633 12.1985 26.2633 12.199 26.2633C13.0783 26.2633 13.7909 25.5507 13.7909 24.6714C13.7909 24.3563 13.6992 24.062 13.5409 23.815L8.2731 14.6908C7.98908 14.1983 7.46326 13.895 6.89455 13.895C6.32583 13.895 5.80024 14.1983 5.516 14.6908L0.213184 23.8756C-0.0710614 24.3683 -0.0710614 24.9751 0.213184 25.4678C0.49743 25.9605 1.02302 26.2636 1.59173 26.2636H5.35458C5.73417 32.2547 8.2463 37.8343 12.5288 42.1168C17.1887 46.7771 23.3842 49.3431 29.9743 49.3431C30.8536 49.3431 31.566 48.6304 31.566 47.7509C31.5662 46.872 30.8538 46.1589 29.9745 46.1589ZM6.89477 18.6707L9.44027 23.0794H4.34928L6.89477 18.6707Z" fill="#17183B"/>
<path d="M34.9416 46.1584C34.5229 46.1584 34.1122 46.3292 33.8159 46.6248C33.5199 46.921 33.3496 47.3317 33.3496 47.7504C33.3496 48.17 33.5199 48.58 33.8159 48.8762C34.112 49.173 34.5229 49.3426 34.9416 49.3426C35.3611 49.3426 35.7709 49.173 36.0679 48.8762C36.3639 48.58 36.5333 48.1695 36.5333 47.7504C36.5333 47.3317 36.3639 46.921 36.0679 46.6248C35.7709 46.3292 35.3611 46.1584 34.9416 46.1584Z" fill="#17183B"/>
<path d="M39.7174 46.1584C39.2979 46.1584 38.8879 46.3292 38.5918 46.6248C38.2949 46.921 38.1255 47.3317 38.1255 47.7504C38.1255 48.1695 38.2951 48.58 38.5918 48.8762C38.8879 49.173 39.2979 49.3426 39.7174 49.3426C40.1361 49.3426 40.547 49.173 40.8428 48.8762C41.1389 48.58 41.3096 48.1695 41.3096 47.7504C41.3096 47.3317 41.1391 46.921 40.8428 46.6248C40.547 46.3292 40.1359 46.1584 39.7174 46.1584Z" fill="#17183B"/>
</svg>
